HIERARCHY
ROOT Hips
{
    OFFSET 0.000000 0.000000 0.000000
    CHANNELS 6 Xposition Yposition Zposition Zrotation Xrotation Yrotation
    JOINT Spine
    {
        OFFSET -0.000000 8.349382 0.000000
        CHANNELS 3 Zrotation Xrotation Yrotation
        JOINT Spine1
        {
            OFFSET -0.000000 23.269058 0.000000
            CHANNELS 3 Zrotation Xrotation Yrotation
            JOINT Neck
            {
                OFFSET -0.000000 23.173496 2.106681
                CHANNELS 3 Zrotation Xrotation Yrotation
                JOINT Head
                {
                    OFFSET -0.000000 14.255042 -2.036435
                    CHANNELS 3 Zrotation Xrotation Yrotation
                    End Site
                    {
                        OFFSET -0.000000 25.455433 0.000000
                    }
                }
            }
            JOINT LeftShoulder
            {
                OFFSET 3.917082 21.531742 0.000256
                CHANNELS 3 Zrotation Xrotation Yrotation
                JOINT LeftArm
                {
                    OFFSET 10.728225 0.000000 0.000000
                    CHANNELS 3 Zrotation Xrotation Yrotation
                    JOINT LeftForeArm
                    {
                        OFFSET 30.046112 0.000000 0.000000
                        CHANNELS 3 Zrotation Xrotation Yrotation
                        JOINT LeftHand
                        {
                            OFFSET 29.023712 0.000000 0.000000
                            CHANNELS 3 Zrotation Xrotation Yrotation
                            End Site
                            {
                                OFFSET 15.273261 0.000000 0.000000
                            }
                        }
                    }
                }
            }
            JOINT RightShoulder
            {
                OFFSET -3.920664 21.531742 0.000256
                CHANNELS 3 Zrotation Xrotation Yrotation
                JOINT RightArm
                {
                    OFFSET -10.728225 0.000000 0.000000
                    CHANNELS 3 Zrotation Xrotation Yrotation
                    JOINT RightForeArm
                    {
                        OFFSET -30.046112 0.000000 0.000000
                        CHANNELS 3 Zrotation Xrotation Yrotation
                        JOINT RightHand
                        {
                            OFFSET -29.023712 0.000000 0.000000
                            CHANNELS 3 Zrotation Xrotation Yrotation
                            End Site
                            {
                                OFFSET -15.273261 0.000000 0.000000
                            }
                        }
                    }
                }
            }
        }
    }
    JOINT LeftUpLeg
    {
        OFFSET 10.182174 0.000000 0.000000
        CHANNELS 3 Zrotation Xrotation Yrotation
        JOINT LeftLeg
        {
            OFFSET -0.000000 -49.689274 0.000000
            CHANNELS 3 Zrotation Xrotation Yrotation
            JOINT LeftFoot
            {
                OFFSET -0.000000 -39.155319 0.000000
                CHANNELS 3 Zrotation Xrotation Yrotation
                JOINT LeftToeBase
                {
                    OFFSET -0.000000 -6.618412 15.273261
                    CHANNELS 3 Zrotation Xrotation Yrotation
                    End Site
                    {
                        OFFSET -0.000000 0.000000 4.072869
                    }
                }
            }
        }
    }
    JOINT RightUpLeg
    {
        OFFSET -10.182174 0.000000 0.000000
        CHANNELS 3 Zrotation Xrotation Yrotation
        JOINT RightLeg
        {
            OFFSET -0.000000 -49.689274 0.000000
            CHANNELS 3 Zrotation Xrotation Yrotation
            JOINT RightFoot
            {
                OFFSET -0.000000 -39.155319 0.000000
                CHANNELS 3 Zrotation Xrotation Yrotation
                JOINT RightToeBase
                {
                    OFFSET -0.000000 -6.618412 15.273261
                    CHANNELS 3 Zrotation Xrotation Yrotation
                    End Site
                    {
                        OFFSET -0.000000 0.000000 4.072869
                    }
                }
            }
        }
    }
}
MOTION
Frames:    13
Frame Time:    0.008333
7.131068    97.345665    9.906530    4.215427    -0.212398    97.792290    0.121472    0.879561    0.652349    2.314286    8.224309    0.486889    2.689910    13.767614    14.255273    -7.907312    -14.072663    12.720389    14.714143    -4.678315    -16.228071    -14.274219    -7.223767    10.714482    9.485469    -5.000233    -16.967934    4.958969    -3.330570    5.905608    -17.907530    4.630612    -20.740850    25.197050    -3.888055    0.278934    -10.906425    1.612710    12.560314    -8.818310    3.429703    -7.961493    1.162651    6.745941    -5.716362    -8.117662    2.489888    -3.800924    7.687726    -5.431335    22.874716    0.000000    0.000000    0.000000    -9.155895    -1.921790    -9.056873    5.178647    18.794493    0.828292    3.129581    -8.506188    -5.657173    0.000000    0.000000    0.000000    
7.069601    97.346321    9.813593    4.193511    -0.158232    97.903969    0.221915    1.002686    0.656857    2.085074    8.037642    0.512316    2.993410    13.659793    14.137555    -8.140448    -13.033043    12.598961    14.901676    -4.673820    -16.269028    -13.769794    -7.709076    10.659084    8.682244    -4.786968    -16.447145    6.154288    -3.208948    6.034672    -17.947678    4.552101    -20.641123    24.846170    -4.129487    0.309661    -10.194921    1.853520    11.928875    -8.600006    3.566097    -8.583134    1.041640    6.720300    -5.602707    -8.062469    2.433339    -3.831953    7.630802    -5.354714    22.685352    0.000000    0.000000    0.000000    -9.305400    -1.990742    -9.928375    5.211089    19.307398    0.342170    2.009617    -8.755107    -7.506474    0.000000    0.000000    0.000000    
7.016338    97.355980    9.722586    4.155895    -0.101381    98.026360    0.320784    1.087996    0.664605    1.857955    7.828229    0.540625    3.070222    13.585378    14.079289    -7.931119    -11.955106    12.659097    15.042201    -4.811500    -16.398745    -12.925488    -8.712044    10.728528    7.459268    -4.103878    -15.980744    7.197948    -2.681559    5.977689    -18.008039    4.455553    -20.554613    24.507261    -4.346332    0.362157    -9.523483    1.979893    11.236138    -8.513251    3.596556    -9.111851    0.927465    6.689923    -5.517744    -8.033648    2.365731    -3.902656    7.606018    -5.239549    22.549809    0.000000    0.000000    0.000000    -9.431693    -2.048242    -10.940288    5.168587    19.834410    -0.412355    0.541087    -8.856082    -9.173159    0.000000    0.000000    0.000000    
6.981114    97.369659    9.636638    4.122081    -0.019639    98.114830    0.407521    1.144420    0.690375    1.592772    7.611994    0.588614    3.134552    13.855966    14.037725    -7.787328    -11.286325    12.700968    15.219003    -4.851143    -16.489620    -12.640205    -8.509752    10.644999    7.129169    -4.054237    -15.280546    7.941831    -2.690210    5.884618    -18.025738    4.361044    -20.490458    24.140697    -4.533923    0.469230    -8.859517    2.008624    10.441019    -8.698429    3.527171    -9.304936    0.818296    6.730882    -5.504595    -8.054866    2.184081    -3.992330    7.552105    -5.054981    22.507421    0.000000    0.000000    0.000000    -9.572897    -2.056914    -11.964626    5.088546    20.266491    -1.197164    -0.812937    -8.806173    -10.311967    0.000000    0.000000    0.000000    
6.954673    97.390663    9.556742    4.095693    0.062672    98.206528    0.452922    1.128351    0.731838    1.401619    7.556373    0.643709    3.357353    13.715157    13.953067    -7.801470    -9.925884    12.690133    15.436664    -5.085855    -16.551901    -12.028691    -9.107037    10.548340    6.336553    -3.398343    -14.507358    8.029333    -2.199118    5.599851    -18.166344    4.225495    -20.495119    23.851259    -4.713831    0.584106    -8.260499    2.013574    9.669678    -8.461317    3.419767    -9.546815    0.680661    6.763744    -5.474307    -8.002209    2.046316    -4.004306    7.438152    -4.904594    22.383345    0.000000    0.000000    0.000000    -9.724718    -2.031212    -12.873599    5.110714    20.622826    -2.599884    -2.080884    -8.600767    -11.134350    0.000000    0.000000    0.000000    
6.934553    97.413872    9.481833    4.075053    0.143755    98.287949    0.508670    1.124421    0.771977    1.182911    7.421291    0.700323    3.589758    13.662278    13.944031    -7.774010    -8.517673    12.772775    15.781269    -5.179327    -16.523218    -11.828098    -9.251011    10.242252    5.815110    -3.305498    -13.676785    9.338913    -2.152052    5.588526    -18.176243    4.145892    -20.461863    23.473888    -4.912241    0.739288    -7.638583    1.811371    8.846772    -9.022614    3.168384    -9.691933    0.539899    6.797662    -5.458360    -7.942085    1.915552    -3.896681    7.302752    -4.760451    22.175812    0.000000    0.000000    0.000000    -9.800838    -2.026644    -13.896180    4.919533    21.027796    -3.618567    -2.873942    -8.428867    -11.820091    0.000000    0.000000    0.000000    
6.923501    97.440407    9.412543    4.071204    0.218051    98.348625    0.553161    1.066201    0.836156    0.984254    7.408052    0.777667    3.753178    13.822353    13.893909    -7.709037    -7.555757    12.799132    16.098379    -5.324159    -16.643152    -11.671515    -9.109713    10.119708    5.718743    -3.139757    -12.789657    9.068777    -2.069031    5.422798    -18.168083    4.065648    -20.476589    23.104115    -5.119801    0.882000    -7.226064    1.914586    8.043419    -8.744585    3.163687    -9.676013    0.348477    6.865330    -5.279670    -7.731527    1.775381    -3.788072    7.102536    -4.619670    21.819183    0.000000    0.000000    0.000000    -9.848207    -2.002758    -14.767092    4.797884    21.462919    -4.653177    -3.396810    -8.174569    -12.519756    0.000000    0.000000    0.000000    
6.912038    97.466370    9.347924    4.061196    0.288964    98.378769    0.609883    1.011766    0.874185    0.806596    7.367112    0.827679    3.786143    14.089969    13.898365    -7.608283    -6.759290    12.884820    16.333458    -5.447268    -16.660236    -11.394398    -9.101733    9.977242    5.407800    -3.001677    -11.999534    9.430560    -1.990320    5.373319    -18.196266    3.991070    -20.453573    22.740372    -5.286658    1.058584    -6.789596    1.746682    7.358011    -9.126850    2.963745    -9.761242    0.228308    6.925891    -5.285595    -7.684253    1.624496    -3.661530    6.980256    -4.460133    21.651035    0.000000    0.000000    0.000000    -9.901359    -2.010150    -15.406193    4.726102    21.767859    -5.479186    -3.388799    -7.794478    -13.118436    0.000000    0.000000    0.000000    
6.906796    97.486671    9.291630    4.068727    0.359750    98.377716    0.651174    0.993144    0.905940    0.675299    7.269487    0.868740    3.738890    14.499384    13.973902    -7.492093    -6.197254    13.037923    16.463720    -5.474957    -16.703136    -11.215779    -8.753737    9.884213    5.459360    -3.061754    -11.166854    9.261943    -2.097542    5.318136    -18.220507    3.973320    -20.392241    22.372408    -5.587258    1.241981    -6.413928    1.623419    6.735671    -9.540495    2.815136    -9.740149    0.111091    7.008145    -5.272888    -7.635986    1.478004    -3.606183    6.873774    -4.317896    21.566778    0.000000    0.000000    0.000000    -9.956293    -2.058492    -16.140707    4.616261    22.227694    -5.900967    -3.292900    -7.333694    -13.447840    0.000000    0.000000    0.000000    
6.899373    97.502769    9.243937    4.067973    0.422657    98.362129    0.689182    0.962691    0.916518    0.578139    7.209554    0.885938    3.681973    14.827467    14.225904    -7.458621    -5.656950    13.354276    16.536207    -5.477054    -16.688124    -10.789584    -8.772268    9.847777    5.232737    -3.069715    -10.517773    9.078380    -2.145154    5.582418    -18.289967    3.939878    -20.307344    22.061932    -5.769331    1.430486    -6.137152    1.402998    6.204838    -9.849689    2.594550    -9.947599    0.004716    7.069189    -5.288049    -7.598492    1.355346    -3.560034    6.815816    -4.177608    21.538065    0.000000    0.000000    0.000000    -9.990992    -2.105698    -16.447409    4.647299    22.542578    -6.491301    -2.687133    -7.134500    -13.831248    0.000000    0.000000    0.000000    
6.891663    97.517418    9.198234    4.074307    0.492529    98.329216    0.687983    0.904389    0.957469    0.542304    7.287891    0.928445    3.547171    15.091830    14.358308    -7.378044    -5.407210    13.534040    16.656916    -5.555447    -16.615814    -10.523861    -8.622552    9.762519    5.094674    -3.358837    -9.855964    9.067414    -2.472557    5.643721    -18.460728    3.894508    -20.284906    21.823999    -5.894206    1.502091    -6.035825    1.142945    5.868257    -9.125861    2.247762    -9.944851    -0.160272    7.118606    -5.252447    -7.443735    1.286863    -3.438264    6.692047    -4.095312    21.405706    0.000000    0.000000    0.000000    -10.034558    -2.166042    -16.614529    4.720977    22.812656    -6.881717    -1.829420    -6.953408    -14.068591    0.000000    0.000000    0.000000    
6.879941    97.523811    9.160524    4.075591    0.559319    98.296204    0.659962    0.828682    1.005536    0.559577    7.461458    0.973891    3.465165    15.140610    14.594429    -7.416132    -5.058659    13.798202    16.790995    -5.685453    -16.484018    -10.293446    -8.402145    9.687200    5.113004    -3.607838    -9.231831    8.210939    -2.789439    5.660215    -18.700705    3.840955    -20.313154    21.685551    -5.892759    1.562942    -5.952442    0.602937    5.540328    -8.657831    1.633912    -9.790592    -0.219414    7.192950    -5.432796    -7.514475    1.122695    -3.467154    6.708820    -3.935043    21.625875    0.000000    0.000000    0.000000    -10.019190    -2.259458    -16.868719    4.620211    23.008686    -7.142582    -0.947473    -6.871863    -14.163054    0.000000    0.000000    0.000000    
6.865321    97.524246    9.128622    4.078132    0.617506    98.244629    0.610001    0.794793    1.064352    0.600619    7.562118    1.028932    3.331376    15.154814    14.882443    -7.312870    -4.716783    14.141011    16.922905    -5.780679    -16.456633    -9.962535    -8.470328    9.781647    4.984075    -3.865902    -8.792740    7.453729    -3.107311    5.776579    -18.865444    3.793175    -20.284302    21.492201    -5.953796    1.521142    -5.915997    -0.166921    5.358287    -7.999820    0.782309    -9.581307    -0.368588    7.218105    -5.420974    -7.370135    1.073609    -3.328596    6.630469    -3.894622    21.537861    0.000000    0.000000    0.000000    -10.015923    -2.371052    -16.880991    4.645550    23.225283    -7.105701    -0.247618    -6.772014    -14.676372    0.000000    0.000000    0.000000    
